<svg xmlns="http://www.w3.org/2000/svg" xmlns:xlink="http://www.w3.org/1999/xlink" width="800" zoomAndPan="magnify" viewBox="0 0 600 225" height="300" preserveAspectRatio="xMidYMid meet" version="1.0"><defs><g/></defs><path fill="#fffdfd" d="M 138.992188 19.804688 L 177.207031 58.015625 C 176.453125 58.03125 175.722656 58.050781 175.039062 58.070312 C 173.585938 58.125 172.226562 58.207031 170.984375 58.328125 L 170.964844 58.328125 C 169.628906 58.460938 168.40625 58.640625 167.320312 58.886719 C 165.1875 59.371094 163.828125 59.996094 162.5 60.617188 L 162.148438 60.777344 L 162.152344 60.785156 L 162.078125 60.816406 C 160.511719 61.535156 158.820312 62.3125 154.304688 66.53125 C 151.449219 69.199219 147.183594 73.507812 142.945312 77.789062 C 142.121094 78.621094 141.308594 79.445312 137.703125 83.046875 C 134.730469 86.019531 132.382812 88.328125 130.625 90.015625 C 128.550781 92.007812 126.746094 93.6875 125.269531 95.003906 C 124.023438 96.117188 123.171875 96.820312 122.527344 97.273438 C 122.007812 97.636719 121.652344 97.832031 121.300781 97.976562 C 120.875 98.148438 120.34375 98.308594 119.714844 98.445312 C 119.136719 98.570312 118.585938 98.652344 118.09375 98.667969 C 117.527344 98.691406 116.960938 98.65625 116.421875 98.585938 C 115.9375 98.527344 115.355469 98.398438 114.734375 98.242188 L 114.730469 98.257812 C 114.355469 98.164062 113.996094 98.046875 113.574219 97.847656 C 113.144531 97.640625 112.667969 97.347656 112.074219 96.894531 C 111.214844 96.238281 110.265625 95.417969 109.214844 94.441406 C 108.195312 93.5 106.828125 92.164062 105.191406 90.546875 C 103.664062 89.035156 101.976562 87.339844 100.125 85.464844 C 98.292969 83.605469 96.285156 81.542969 94.09375 79.289062 L 92.382812 77.523438 C 88.445312 73.460938 84.246094 69.128906 81.246094 66.273438 C 79.390625 64.507812 77.925781 63.246094 76.550781 62.265625 C 75.03125 61.175781 73.664062 60.464844 72.113281 59.863281 C 70.613281 59.285156 69.011719 58.839844 67.195312 58.519531 C 65.523438 58.222656 63.5625 58.023438 61.199219 57.914062 C 59.617188 57.84375 57.824219 57.820312 55.902344 57.828125 L 93.925781 19.804688 C 106.324219 7.40625 126.601562 7.40625 138.992188 19.804688 Z M 187.105469 67.910156 L 209.445312 90.253906 C 221.835938 102.644531 221.835938 122.921875 209.445312 135.316406 L 187.164062 157.597656 L 187.164062 157.46875 L 183.117188 157.46875 C 181.148438 157.46875 180.234375 157.484375 179.453125 157.476562 C 178.179688 157.464844 176.785156 157.441406 175.390625 157.390625 C 174.128906 157.34375 172.972656 157.277344 171.9375 157.171875 C 170.996094 157.082031 170.171875 156.960938 169.5 156.808594 C 168.453125 156.570312 167.546875 156.152344 166.660156 155.742188 L 166.308594 155.578125 L 166.289062 155.578125 L 166.203125 155.539062 C 165.363281 155.15625 164.460938 154.738281 161.070312 151.574219 C 158.253906 148.941406 154.109375 144.753906 149.984375 140.589844 L 144.746094 135.292969 C 142.339844 132.890625 139.894531 130.496094 137.511719 128.210938 C 135.144531 125.9375 133.261719 124.179688 131.882812 122.949219 C 130.378906 121.609375 129.253906 120.6875 128.246094 119.980469 C 127.113281 119.179688 126.140625 118.679688 125.035156 118.226562 C 123.96875 117.789062 122.875 117.441406 121.816406 117.210938 C 120.773438 116.984375 119.648438 116.839844 118.480469 116.792969 C 117.355469 116.75 116.242188 116.8125 115.175781 116.953125 C 114.046875 117.097656 113.089844 117.285156 112.28125 117.492188 L 112.28125 117.511719 C 111.230469 117.78125 110.277344 118.082031 109.292969 118.550781 C 108.308594 119.019531 107.273438 119.65625 106.042969 120.59375 C 105.074219 121.332031 103.886719 122.371094 102.480469 123.667969 C 101.042969 125 99.640625 126.355469 98.1875 127.792969 C 96.628906 129.335938 94.914062 131.058594 93.046875 132.953125 C 91.160156 134.871094 89.136719 136.945312 86.976562 139.171875 L 85.265625 140.9375 C 81.410156 144.914062 77.296875 149.160156 74.398438 151.914062 C 72.875 153.367188 71.746094 154.347656 70.796875 155.027344 C 69.996094 155.597656 69.300781 155.964844 68.53125 156.261719 C 67.707031 156.578125 66.71875 156.84375 65.484375 157.0625 C 64.109375 157.300781 62.566406 157.464844 60.769531 157.546875 C 58.738281 157.636719 56.429688 157.648438 53.988281 157.617188 C 51.566406 157.585938 48.800781 157.507812 46.035156 157.433594 L 46.023438 157.863281 L 23.476562 135.316406 C 11.085938 122.921875 11.085938 102.644531 23.476562 90.253906 L 46.03125 67.699219 L 46.035156 67.949219 C 48.800781 67.875 51.566406 67.796875 53.988281 67.765625 C 56.429688 67.734375 58.738281 67.742188 60.769531 67.835938 C 62.566406 67.917969 64.109375 68.078125 65.484375 68.320312 C 66.71875 68.539062 67.707031 68.804688 68.53125 69.121094 C 69.300781 69.417969 69.996094 69.785156 70.796875 70.355469 C 71.746094 71.035156 72.875 72.015625 74.398438 73.46875 C 77.296875 76.222656 81.410156 80.46875 85.265625 84.445312 L 86.976562 86.210938 C 89.136719 88.4375 91.160156 90.507812 93.046875 92.425781 C 94.914062 94.324219 96.628906 96.046875 98.1875 97.589844 C 99.640625 99.027344 101.042969 100.382812 102.480469 101.714844 C 103.886719 103.011719 105.074219 104.046875 106.042969 104.789062 C 107.273438 105.726562 108.308594 106.363281 109.292969 106.832031 C 110.277344 107.300781 111.230469 107.597656 112.28125 107.867188 L 112.28125 107.890625 C 113.089844 108.09375 114.046875 108.285156 115.175781 108.429688 C 116.242188 108.566406 117.355469 108.632812 118.480469 108.589844 C 119.648438 108.542969 120.773438 108.398438 121.816406 108.171875 C 122.875 107.9375 123.96875 107.59375 125.035156 107.15625 C 126.140625 106.703125 127.113281 106.199219 128.246094 105.402344 C 129.253906 104.695312 130.378906 103.773438 131.882812 102.429688 C 133.261719 101.203125 135.144531 99.445312 137.511719 97.171875 C 139.894531 94.886719 142.339844 92.492188 144.746094 90.085938 L 149.984375 84.792969 C 154.109375 80.628906 158.253906 76.441406 161.070312 73.804688 C 164.460938 70.640625 165.363281 70.226562 166.203125 69.839844 L 166.289062 69.800781 L 166.308594 69.800781 L 166.660156 69.640625 C 167.546875 69.226562 168.453125 68.808594 169.5 68.570312 C 170.171875 68.417969 170.996094 68.300781 171.9375 68.210938 C 172.972656 68.105469 174.128906 68.039062 175.390625 67.992188 C 176.785156 67.941406 178.179688 67.914062 179.453125 67.902344 C 180.234375 67.898438 181.148438 67.910156 183.117188 67.910156 Z M 177.390625 167.371094 L 138.992188 205.765625 C 126.601562 218.160156 106.324219 218.160156 93.925781 205.765625 L 55.714844 167.554688 C 57.710938 167.5625 59.566406 167.539062 61.199219 167.464844 C 63.5625 167.355469 65.523438 167.15625 67.195312 166.863281 C 69.011719 166.542969 70.613281 166.097656 72.113281 165.519531 C 73.664062 164.917969 75.03125 164.207031 76.550781 163.117188 C 77.925781 162.132812 79.390625 160.875 81.246094 159.109375 C 84.246094 156.253906 88.445312 151.921875 92.382812 147.859375 L 94.09375 146.09375 C 96.285156 143.839844 98.292969 141.777344 100.125 139.917969 C 101.976562 138.042969 103.664062 136.34375 105.191406 134.832031 C 106.828125 133.214844 108.195312 131.882812 109.214844 130.941406 C 110.265625 129.964844 111.214844 129.144531 112.074219 128.488281 C 112.667969 128.035156 113.144531 127.738281 113.574219 127.535156 C 113.996094 127.332031 114.355469 127.21875 114.730469 127.121094 L 114.734375 127.140625 C 115.355469 126.980469 115.9375 126.855469 116.421875 126.792969 C 116.960938 126.722656 117.527344 126.691406 118.09375 126.710938 C 118.585938 126.730469 119.136719 126.808594 119.714844 126.9375 C 120.34375 127.074219 120.875 127.234375 121.300781 127.40625 C 121.652344 127.550781 122.007812 127.746094 122.527344 128.105469 C 123.171875 128.5625 124.023438 129.265625 125.269531 130.378906 C 126.746094 131.695312 128.550781 133.371094 130.625 135.363281 C 132.382812 137.054688 134.730469 139.363281 137.703125 142.335938 C 141.308594 145.9375 142.121094 146.761719 142.945312 147.59375 C 147.183594 151.875 151.449219 156.179688 154.304688 158.847656 C 158.820312 163.070312 160.511719 163.847656 162.078125 164.5625 L 162.152344 164.597656 L 162.148438 164.605469 L 162.5 164.765625 C 163.828125 165.382812 165.1875 166.011719 167.320312 166.496094 C 168.40625 166.742188 169.628906 166.921875 170.964844 167.054688 L 170.984375 167.054688 C 172.226562 167.175781 173.585938 167.257812 175.039062 167.308594 C 175.777344 167.335938 176.574219 167.355469 177.390625 167.371094 Z M 177.390625 167.371094 " fill-opacity="1" fill-rule="evenodd"/><g fill="#ffffff" fill-opacity="1"><g transform="translate(209.182754, 172.669384)"><g><path d="M 15.265625 0 L 15.265625 -121.78125 L 66.71875 -121.78125 C 71.976562 -121.78125 76.804688 -120.664062 81.203125 -118.4375 C 85.609375 -116.207031 89.410156 -113.289062 92.609375 -109.6875 C 95.816406 -106.082031 98.304688 -101.992188 100.078125 -97.421875 C 101.847656 -92.847656 102.734375 -88.21875 102.734375 -83.53125 C 102.734375 -79.070312 102.078125 -74.8125 100.765625 -70.75 C 99.453125 -66.6875 97.625 -63.023438 95.28125 -59.765625 C 92.9375 -56.515625 90.101562 -53.773438 86.78125 -51.546875 C 83.46875 -49.316406 79.753906 -47.800781 75.640625 -47 L 105.484375 0 L 91.9375 0 L 63.296875 -44.9375 L 27.265625 -44.9375 L 27.265625 0 Z M 27.265625 -55.578125 L 67.0625 -55.578125 C 70.601562 -55.578125 73.832031 -56.347656 76.75 -57.890625 C 79.664062 -59.429688 82.148438 -61.515625 84.203125 -64.140625 C 86.265625 -66.773438 87.867188 -69.75 89.015625 -73.0625 C 90.160156 -76.382812 90.734375 -79.875 90.734375 -83.53125 C 90.734375 -87.1875 90.070312 -90.703125 88.75 -94.078125 C 87.4375 -97.453125 85.664062 -100.394531 83.4375 -102.90625 C 81.207031 -105.425781 78.578125 -107.425781 75.546875 -108.90625 C 72.515625 -110.394531 69.34375 -111.140625 66.03125 -111.140625 L 27.265625 -111.140625 Z M 27.265625 -55.578125 "/></g></g></g><g fill="#ffffff" fill-opacity="1"><g transform="translate(321.18246, 172.669384)"><g><path d="M 51.453125 1.71875 C 44.929688 1.71875 38.957031 0.488281 33.53125 -1.96875 C 28.101562 -4.425781 23.382812 -7.800781 19.375 -12.09375 C 15.375 -16.382812 12.257812 -21.328125 10.03125 -26.921875 C 7.800781 -32.523438 6.6875 -38.53125 6.6875 -44.9375 C 6.6875 -51.226562 7.800781 -57.144531 10.03125 -62.6875 C 12.257812 -68.226562 15.347656 -73.085938 19.296875 -77.265625 C 23.242188 -81.441406 27.957031 -84.757812 33.4375 -87.21875 C 38.925781 -89.675781 44.875 -90.90625 51.28125 -90.90625 C 57.800781 -90.90625 63.773438 -89.675781 69.203125 -87.21875 C 74.640625 -84.757812 79.300781 -81.414062 83.1875 -77.1875 C 87.070312 -72.957031 90.097656 -68.097656 92.265625 -62.609375 C 94.441406 -57.117188 95.53125 -51.285156 95.53125 -45.109375 C 95.53125 -44.191406 95.53125 -43.273438 95.53125 -42.359375 C 95.53125 -41.453125 95.472656 -40.828125 95.359375 -40.484375 L 18.859375 -40.484375 C 19.203125 -35.679688 20.316406 -31.25 22.203125 -27.1875 C 24.097656 -23.125 26.53125 -19.601562 29.5 -16.625 C 32.46875 -13.65625 35.867188 -11.34375 39.703125 -9.6875 C 43.535156 -8.03125 47.625 -7.203125 51.96875 -7.203125 C 54.820312 -7.203125 57.675781 -7.601562 60.53125 -8.40625 C 63.394531 -9.207031 66.023438 -10.289062 68.421875 -11.65625 C 70.828125 -13.03125 73.003906 -14.71875 74.953125 -16.71875 C 76.898438 -18.71875 78.382812 -20.921875 79.40625 -23.328125 L 89.53125 -20.578125 C 88.15625 -17.265625 86.207031 -14.265625 83.6875 -11.578125 C 81.175781 -8.890625 78.265625 -6.546875 74.953125 -4.546875 C 71.640625 -2.546875 67.976562 -1.003906 63.96875 0.078125 C 59.96875 1.171875 55.796875 1.71875 51.453125 1.71875 Z M 84.390625 -49.390625 C 84.046875 -54.191406 82.929688 -58.566406 81.046875 -62.515625 C 79.160156 -66.460938 76.757812 -69.863281 73.84375 -72.71875 C 70.925781 -75.582031 67.550781 -77.8125 63.71875 -79.40625 C 59.882812 -81.007812 55.796875 -81.8125 51.453125 -81.8125 C 47.109375 -81.8125 42.992188 -81.007812 39.109375 -79.40625 C 35.222656 -77.8125 31.820312 -75.582031 28.90625 -72.71875 C 25.988281 -69.863281 23.640625 -66.429688 21.859375 -62.421875 C 20.085938 -58.421875 19.03125 -54.078125 18.6875 -49.390625 Z M 84.390625 -49.390625 "/></g></g></g><g fill="#f7d101" fill-opacity="1"><g transform="translate(421.854624, 172.669384)"><g><path d="M 53 -121.78125 L 63.125 -121.78125 L 113.71875 0 L 101.015625 0 L 85.25 -38.078125 L 30.53125 -38.078125 L 14.921875 0 L 2.0625 0 Z M 82.5 -47.515625 L 57.96875 -107.71875 L 33.109375 -47.515625 Z M 82.5 -47.515625 "/></g></g></g><g fill="#f7d101" fill-opacity="1"><g transform="translate(537.799199, 172.669384)"><g><path d="M 15.265625 0 L 15.265625 -121.78125 L 27.265625 -121.78125 L 27.265625 0 Z M 15.265625 0 "/></g></g></g></svg>